<?xml version="1.0" encoding="utf-8"?>
<!-- Generator: Adobe Illustrator 25.4.1, SVG Export Plug-In . SVG Version: 6.00 Build 0)  -->
<svg version="1.1" id="Layer_1" xmlns="http://www.w3.org/2000/svg" xmlns:xlink="http://www.w3.org/1999/xlink" x="0px" y="0px"
	 viewBox="0 0 198 48.2" style="enable-background:new 0 0 198 48.2;" xml:space="preserve">
<g>
	<path d="M19.9,47.8c-6.6-3.5-11.4-7.6-15-14.3S0,19,0,3.9V0h41.3v3.9c0,15.1-1.2,23-4.9,29.6c-3.6,6.6-8.5,10.8-15,14.3l-0.7,0.4
		L19.9,47.8z M2,5.8c0,14.6,1.8,21.3,4.6,26.6c3,5.7,6.7,9.1,13.4,13.2l0.6,0.4l0.6-0.4c6.7-4.1,10.4-7.5,13.4-13.2
		c2.8-5.3,4.6-12,4.6-26.6V1.9H2V5.8z M27.9,21.1c0.5,0.5,1.4,1,3,1s3.1-0.5,3.1-0.5H34c0,1.1-1.4,1.9-2.1,2.2
		c-0.8,0.3-1.6,0.4-2.4,0.4s-2-0.2-2.4-0.4v0.1c0.4,0.7,1.3,1.2,1.9,1.4c0.7,0.2,1.3,0.2,1.6,0.2s0.9,0,0.9,0v0.1c0,0-0.3,0.5-1.2,1
		C29.4,26.9,28.6,27,28,27c-1,0-1.8-0.3-2.5-0.9h-0.1c0.1,0.7,1,2.3,2.1,2.3c0.3,0,0.7-0.1,0.7-0.6h0.1c0,0,0.4,0.2,0.4,0.8
		c0,0.6-0.4,1.4-1.6,1.4c-1.9,0-3.1-2.1-3.4-3.2h-0.1c0,1.7,0.6,3.3,0.6,3.3l0,0c-0.9-0.3-2-1.6-2.3-2.8h-0.1c0,4,1.3,5.1,2.9,5.1
		c1.2,0,1.8-0.6,1.8-0.6h0.1c0,2.2-1.2,3-2.3,3c-1,0-1.8-0.5-2.3-1.4h-0.1c0,1.5,0.6,3.1,2.5,3.1c0.8,0,1.2-0.3,1.2-0.3h0.1
		c0,1.3-0.8,2.2-2,2.2c-1.1,0-1.9-0.9-2.2-1.6h-0.1c0,0,0.4,1.3,0.4,2.3c0,1.3-0.6,2.3-1,2.8h-0.1c-0.4-0.5-1-1.6-1-2.8
		c0-1.1,0.4-2.3,0.4-2.3h-0.1c-0.3,0.7-1.2,1.6-2.2,1.6c-1.3,0-2-1-2-2.2h0.1c0,0,0.4,0.3,1.2,0.3c1.9,0,2.5-1.7,2.5-3.1h-0.1
		c-0.5,0.9-1.4,1.4-2.3,1.4c-1.2,0-2.3-0.8-2.3-3h0.1c0,0,0.6,0.6,1.8,0.6c1.6,0,2.9-1.2,2.9-5.1h-0.1C19,28.5,18,29.8,17,30.1l0,0
		c0,0,0.6-1.6,0.6-3.3h-0.1C17.2,27.9,16,30,14.1,30c-1.2,0-1.6-0.8-1.6-1.4c0-0.6,0.4-0.8,0.4-0.8H13c0,0.4,0.3,0.6,0.7,0.6
		c1.2,0,2-1.6,2.1-2.3h-0.1C15,26.7,14.2,27,13.3,27c-0.6,0-1.4-0.1-2.2-0.5c-0.9-0.4-1.2-1-1.2-1v-0.1c0,0,0.6,0,0.9,0
		c0.3,0,0.9,0,1.6-0.2c0.7-0.2,1.6-0.7,1.9-1.4v-0.1c-0.4,0.2-1.6,0.4-2.4,0.4c-0.8,0-1.6-0.1-2.4-0.4c-0.8-0.3-2.1-1.2-2.1-2.2h0.1
		c0,0,1.5,0.5,3.1,0.5c1.6,0,2.5-0.5,3-1V21c-2.6,0-4.2-0.4-5-0.8c-0.9-0.4-2-1.2-2-2.7h0.1c0,0,1.1,0.8,3.1,0.8
		c1.6,0,2.5-0.5,2.9-0.9v-0.1c-2.1,0-3.7-0.3-4.8-0.9c-1.1-0.6-1.8-1.5-1.8-2.7h0.1c0,0,1.1,0.8,3.1,0.8c1.6,0,2.5-0.5,2.9-0.9v-0.1
		c-2.1,0-3.7-0.3-4.8-0.9s-1.8-1.5-1.8-2.7h0.1c0,0,1.1,0.8,3.1,0.8c1.6,0,2.5-0.5,2.9-0.9V9.7C9,9.7,7.5,9.4,6.4,8.8
		c-1.1-0.6-1.8-1.5-1.8-4h0.1c2,1.6,3.5,1.8,5.2,1.8c2,0,3.5-0.4,4.1-0.4c0.5,0,1.1,0.3,1.1,1.1c0,0.8-0.7,1.9-0.7,3.9
		c0,2.7,1.2,4.4,2.7,4.4c0,0,0.3,0.8,1.4,0.8c0.5,0,0.7-0.1,0.7-0.1h0.1c0.2,1.4,1.4,1.9,1.4,1.9h0.1c0,0,1.1-0.5,1.4-1.9h0.1
		c0,0,0.2,0.1,0.7,0.1c1.1,0,1.4-0.8,1.4-0.8c1.6,0,2.7-1.7,2.7-4.4c0-2-0.7-3.1-0.7-3.9c0-0.8,0.6-1.1,1.1-1.1
		c0.6,0,2.1,0.4,4.1,0.4c1.7,0,3.2-0.3,5.2-1.8h0.1c0,2.5-0.8,3.4-1.8,4c-1.1,0.6-2.6,0.9-4.8,0.9v0.1c0.4,0.4,1.3,0.9,2.9,0.9
		c2,0,3.1-0.8,3.1-0.8h0.1c0,1.3-0.8,2.1-1.8,2.7c-1.1,0.6-2.6,0.9-4.8,0.9v0.1c0.4,0.4,1.3,0.9,2.9,0.9c2,0,3.1-0.8,3.1-0.8h0.1
		c0,1.3-0.8,2.1-1.8,2.7c-1.1,0.6-2.6,0.9-4.8,0.9v0.1c0.4,0.4,1.3,0.9,2.9,0.9c2,0,3.1-0.8,3.1-0.8h0.1c0,1.6-1.2,2.3-2,2.7
		S30.5,21,27.9,21.1L27.9,21.1L27.9,21.1z M21.6,14.7L21.6,14.7c-0.1,1.5-1,2.4-1,2.4h-0.1c0,0-0.9-1-0.9-2.4h-0.1
		c-0.2,0.6-0.6,0.9-1.1,0.9c-0.7,0-1-0.7-1-0.7c0.4-0.9,0.6-1.5,0.8-2c0.2-0.6,0.4-1.3,0.4-1.6c0-0.3-0.1-0.7-0.8-0.9l-0.4-0.1
		c-0.2,0-0.4-0.1-0.6-0.1c-0.3,0-0.6,0.1-0.6,0.8h-0.1c-0.2-0.2-0.5-0.6-0.5-1.3c0-0.4,0.1-0.6,0.4-0.8c0.4-0.2,1.3-0.6,2.2-0.8
		l0.4-0.6c0,0,0.5-0.1,1.1-0.1c1.3,0,2.9,0.4,3.5,0.4c0.5,0,1.1-0.2,1.4-0.6h0.1v0.3c0,0.9-0.6,1.4-1.8,1.4V9c1.3,0,1.9,0.6,1.9,1.6
		c0,0.7-0.4,1.1-0.6,1.2h-0.1c0-0.2-0.3-0.5-0.6-0.5S23,11.5,23,12c0,0.6,0.4,2.2,0.7,2.9c0,0-0.2,0.7-1,0.7
		C22.3,15.5,21.8,15.2,21.6,14.7z M19.4,8.3L19.4,8.3c0,0.4,0.1,0.7,0.6,0.7s0.6-0.3,0.6-0.6V8.3H19.4z"/>
</g>
<g>
	<path d="M50.5,5.2c0-1.5,0-1.9-1.7-1.9c-0.1,0-0.5,0-0.5,0V2.5c0.6,0,1.4,0,2.3,0c1.7,0,3.8-0.1,5.5-0.1c6.2,0,9.8,3.3,9.8,8.4
		c0,2.5-1,4.7-2.8,6.2c-1.8,1.6-4.1,2.2-6.6,2.2c-1.1,0-3-0.2-5.2-0.2c-0.8,0-1.7,0-2.9,0.1v-0.8c1.9,0,2.1-0.3,2.1-1.7L50.5,5.2
		L50.5,5.2z M53.6,16c0,0.5,0,1,0.1,1.4c0.2,0.6,1.4,1,2.5,1c3.7,0,6.4-2.8,6.4-7.3c0-5.1-2.8-7.8-7.6-7.8c-0.4,0-1,0-1.4,0.1V16z"
		/>
	<path d="M67.2,18.4c1.5,0,2.3-0.7,2.9-2.5L74.9,3c0.7-0.3,1.6-0.6,2.5-1.1L82.8,17c0.4,1.1,1,1.4,2.2,1.4v0.8
		c-1.1,0-2.4-0.1-3.4-0.1c-1,0-2.3,0-3.8,0.1v-0.8c0,0,0.2,0,0.3,0c1,0,1.4-0.1,1.4-0.7c0-0.2-0.1-0.5-0.2-1.1l-1.1-3.2h-5.9l-1,2.9
		c-0.2,0.6-0.3,1-0.3,1.2c0,0.7,0.6,0.9,2,0.9v0.8c-1.2,0-2.5-0.1-3.9-0.1c-0.4,0-1.3,0-1.8,0.1L67.2,18.4L67.2,18.4z M75.3,5.1
		L72.8,12h4.9L75.3,5.1z"/>
	<path d="M86.2,18.4c1.9,0,2.1-0.3,2.1-1.7V5.2c0-1.5,0-1.9-1.9-1.9c-0.1,0-0.2,0-0.2,0V2.5c0.9,0,1.5,0,1.9,0c2.5,0,4.3,0,5.5,0
		v0.8c-2,0-2.2,0.3-2.2,1.9v10.8c0,2.1,0.7,2.3,3.2,2.3c2.9,0,4.3-0.4,5-2.9l0.7,0.2l-0.9,3.8c-0.7-0.1-1.6-0.1-2.8-0.1
		c-1,0-2.6,0-4,0c-1.1,0-2.1,0-2.9,0c-2.1,0-3.2,0-3.4,0.1L86.2,18.4L86.2,18.4z"/>
	<path d="M101.6,18.4c1.9,0,2.1-0.3,2.1-1.7V5.2c0-1.5,0-1.9-1.9-1.9c-0.1,0-0.5,0-0.5,0V2.5c1,0,2.5,0,3.9,0c1.2,0,2.5,0,3.9,0v0.8
		c0,0-0.2,0-0.3,0c-1.6,0-1.9,0.4-1.9,2v4.6h8.6V5.2c0-1.5,0-1.9-1.9-1.9c-0.1,0-0.2,0-0.2,0V2.5c1,0,2.2,0,3.6,0c1.1,0,2.4,0,3.9,0
		v0.8c0,0-0.2,0-0.3,0c-1.6,0-1.9,0.4-1.9,2v11.1c0,1.7,0.1,2.2,2.1,2.2c0,0,0.1,0,0.1,0v0.7c-1.4,0-2.8-0.1-3.9-0.1
		c-1.1,0-2.3,0-3.6,0.1v-0.8c1.9,0,2.1-0.3,2.1-1.7v-5.6h-8.6v5.2c0,1.7,0.1,2.2,2.1,2.2c0,0,0.1,0,0.1,0v0.7
		c-1.3-0.1-2.6-0.1-3.9-0.1c-1.1,0-2.3,0-3.6,0.1L101.6,18.4L101.6,18.4z"/>
	<path d="M125.6,17.5c-2-1.7-2.8-3.7-2.8-6.4c0-2.2,0.7-4.2,2-5.8c1.8-2.1,4.2-3.1,7.3-3.1c2.3,0,4.2,0.7,5.8,2.1
		c2,1.7,2.8,3.7,2.8,6.4c0,2.2-0.7,4.2-2,5.8c-1.8,2.1-4.2,3.1-7.3,3.1C129.2,19.5,127.2,18.9,125.6,17.5z M126.2,10.5
		c0,4.8,2.6,8,6,8c3.1,0,5.3-2.5,5.3-7.3c0-4.8-2.6-8.1-6-8.1C128.3,3.1,126.2,5.7,126.2,10.5z"/>
	<path d="M142.6,2.5c1.2,0.1,2.4,0.1,3.7,0.1c1.1,0,2.4,0,3.6-0.1v0.8c0,0-0.2,0-0.3,0c-1.6,0-1.8,0.5-1.8,2.2v7.7
		c0,3.5,1.4,5.1,4.5,5.1c1.8,0,3.3-0.7,4-2c0.6-1,0.7-2.1,0.7-3.5V6.1c0-2.2-0.2-2.9-1.9-2.9c-0.1,0-0.4,0-0.4,0V2.5
		c0.7,0,1.5,0.1,2.4,0.1c1,0,2-0.1,3.2-0.1v0.8c0,0-0.2,0-0.3,0c-1.5,0-1.6,0.7-1.6,2.9v6.2c0,2.3-0.2,3.9-1.5,5.4
		c-1.3,1.4-3,1.9-5.6,1.9c-4.5,0-6.5-2.1-6.5-6.4V5.9c0-2.2,0-2.6-2.2-2.6L142.6,2.5L142.6,2.5z"/>
	<path d="M162.4,14.9l0.6-0.1c0.7,2.6,1.7,3.8,3.8,3.8c1.8,0,2.9-1.1,2.9-2.9c0-0.8-0.3-1.5-0.8-2c-1-0.9-2.1-1.3-2.9-1.8
		c-2.1-1.2-3.1-2.5-3.1-4.7c0-2.9,2.1-4.9,5.3-4.9c0.7,0,1.9,0.1,3.3,0.4l0.2,3.4l-0.6,0.1c-0.4-2-1.4-2.9-3-2.9
		c-1.6,0-2.8,1.2-2.8,2.8c0,0.8,0.3,1.5,0.8,2c0.8,0.8,1.8,1.2,2.8,1.7c2.3,1.2,3.5,2.5,3.5,4.7c0,3-2.2,5.2-5.7,5.2
		c-1.4,0-2.6-0.4-3.9-1.1L162.4,14.9z"/>
	<path d="M175,18.4c1.9,0,2.1-0.3,2.1-1.7V5.2c0-1.5,0-1.9-1.9-1.9c-0.1,0-0.2,0-0.2,0V2.5c1,0,2.2,0,3.6,0c1.2,0,2.5,0,3.8,0v0.8
		c0,0-0.2,0-0.3,0c-1.6,0-1.9,0.4-1.9,2v11.2c0,1.7,0.1,2.1,2.2,2.1v0.8c-1.2,0-2.3-0.1-3.5-0.1c-1.2,0-2.4,0.1-3.9,0.1L175,18.4
		L175,18.4z"/>
	<path d="M184.2,18.4c1.9,0,2.1-0.3,2.1-1.7V5.2c0-1.5,0-1.9-1.9-1.9c-0.1,0-0.2,0-0.2,0V2.5c1.3,0,3.4,0,6,0c3.5,0,5.7,0,6.3,0v3.6
		l-0.6,0.1c-0.2-2.4-1.1-2.7-3.6-2.7h-2.8v6.3h2.1c2,0,2.7-0.2,2.7-2c0,0,0-0.1,0-0.1h0.7c-0.1,1-0.1,1.9-0.1,2.7
		c0,0.7,0,1.6,0.1,2.7l-0.7,0.1c0-2-0.6-2.2-2.7-2.2h-2.1V16c0,1.9,0.5,2.2,2.8,2.2c3.1,0,4.4-0.3,5.1-2.9l0.7,0.2l-0.9,3.8
		c-2.3-0.1-4.3-0.1-5.8-0.1c-1.2,0-2.2,0-2.9,0c-0.7,0-1.4,0-2.1,0c-0.8,0-1.5,0-2.1,0.1V18.4z"/>
	<path d="M48.5,28.6c1.2,0.1,2.4,0.1,3.6,0.1c1.1,0,2.4,0,3.6-0.1v0.8c0,0-0.2,0-0.3,0c-1.6,0-1.7,0.5-1.7,2.2v7.7
		c0,3.5,1.3,5.1,4.4,5.1c1.8,0,3.2-0.7,3.9-2c0.5-1,0.6-2.1,0.6-3.5v-6.8c0-2.2-0.2-2.9-1.8-2.9c-0.1,0-0.4,0-0.4,0v-0.8
		c0.7,0,1.5,0.1,2.4,0.1c1,0,2-0.1,3.2-0.1v0.8c0,0-0.2,0-0.3,0c-1.5,0-1.6,0.7-1.6,2.9v6.2c0,2.3-0.2,3.9-1.5,5.4
		c-1.2,1.4-2.9,1.9-5.5,1.9c-4.5,0-6.4-2.1-6.4-6.4V32c0-2.2,0-2.6-2.2-2.6L48.5,28.6L48.5,28.6z"/>
	<path d="M67.8,44.6c0,0,0.2,0,0.3,0c1.8,0,2.2-1,2.2-3.7v-9.1c0-1.7-0.3-2.1-2.4-2.4v-0.8c0.5,0,1.3,0,2.5,0c1.2,0,2.3,0,2.3,0
		l9.5,12v-8.5c0-2.1-0.5-2.7-2.4-2.7c0,0-0.1,0-0.1,0v-0.8c0.6,0,1.4,0,2.3,0c1.5,0,2.8,0,3.8,0v0.8c0,0-0.1,0-0.2,0
		c-1.8,0-2.2,0.8-2.2,3.4v13h-0.9L71.4,32v8.9c0,2.7,0.2,3.7,2.1,3.7c0.2,0,0.5,0,0.5,0v0.8c-0.8,0-1.8-0.1-3-0.1
		c-1.1,0-2.2,0.1-3.2,0.1L67.8,44.6L67.8,44.6z"/>
	<path d="M87.4,44.6c1.9,0,2.1-0.3,2.1-1.7V31.3c0-1.5,0-1.9-1.9-1.9c-0.1,0-0.2,0-0.2,0v-0.8c1,0,2.2,0,3.6,0c1.2,0,2.2,0,3.5,0
		v0.8c0,0-0.1,0-0.2,0c-1.6,0-1.8,0.4-1.8,2v11.2c0,1.7,0.1,2.1,2.2,2.1v0.8c-1.1,0-2.2-0.1-3.4-0.1c-1.1,0-2.5,0.1-3.9,0.1
		L87.4,44.6L87.4,44.6z"/>
	<path d="M103.3,45.6l-5.8-14.9c-0.5-1.2-1.2-1.2-2-1.3v-0.8c1,0,1.8,0,2.7,0c1.9,0,3.3,0,4.2,0v0.8c0,0-0.2,0-0.3,0
		c-0.9,0-1.3,0.2-1.3,0.6c0,0.4,0.1,0.7,0.3,1.1l3.7,10.2l3.7-10.2c0.1-0.4,0.2-0.7,0.2-0.9c0-0.7-0.6-0.8-1.9-0.9v-0.8
		c0.7,0,1.3,0,2,0c0.6,0,1.6,0,3,0v0.8c-0.8,0-1.4,0.5-1.9,1.6l-5.7,14.6L103.3,45.6L103.3,45.6z"/>
	<path d="M112.5,44.6c1.9,0,2.1-0.3,2.1-1.7V31.3c0-1.5-0.2-1.9-1.5-1.9c-0.1,0-0.1,0-0.3,0v-0.8c1.3,0,3,0,5.6,0c3.5,0,5.6,0,6.1,0
		v3.6l-0.6,0.1c-0.2-2.4-1.1-2.7-3.6-2.7h-2.6V36h2c2,0,2.6-0.2,2.6-2c0,0,0-0.1,0-0.1h0.7c0,1-0.1,1.9-0.1,2.7c0,0.7,0,1.6,0.1,2.7
		l-0.6,0.1c0-2-0.5-2.2-2.6-2.2h-2v4.9c0,1.9,0.4,2.2,2.7,2.2c3.1,0,4.3-0.3,5-2.9l0.7,0.2l-0.9,3.8c-2.3-0.1-4.2-0.1-5.7-0.1
		c-1.2,0-2.1,0-2.8,0c-0.7,0-1.4,0-2.1,0c-0.8,0-1.5,0-2.1,0.1L112.5,44.6L112.5,44.6z"/>
	<path d="M128.2,44.6c1.9,0,2.1-0.3,2.1-2V31.3c0-1.5,0-1.9-1.9-1.9h-0.2v-0.8c1.4,0,2.5,0,3.4,0c1.5,0,2.8-0.1,3.9-0.1
		c3.9,0,6.1,1.7,6.1,4.3c0,2-1.2,3.5-3.3,4.2c3,4.9,4.7,7.5,6,7.5c0.1,0,0.3,0,0.3,0v0.7c-0.6,0-1.5-0.1-2.3-0.1
		c-0.7,0-1.4,0-2.3,0.1c-1.9-2.7-3.4-5.2-4.7-7.6h-1.9v4.9c0,1.7,0.3,2,2.2,2v0.8c-1.3-0.1-2.5-0.1-3.8-0.1c-1.2,0-2.5,0-3.6,0.1
		L128.2,44.6L128.2,44.6z M134.3,36.9c2.7,0,4-1.2,4-3.6c0-2.5-1.3-3.7-4-3.7c-0.3,0-0.7,0-1,0v7.3C133.6,36.9,134,36.9,134.3,36.9z
		"/>
	<path d="M145.6,41l0.6-0.1c0.6,2.6,1.7,3.8,3.8,3.8c1.7,0,2.9-1.1,2.9-2.9c0-0.8-0.3-1.5-0.8-2c-1-0.9-2.1-1.3-2.9-1.8
		c-2.1-1.2-3.1-2.5-3.1-4.7c0-2.9,2.1-4.9,5.2-4.9c0.7,0,1.9,0.1,3.3,0.4l0.2,3.4l-0.6,0.1c-0.4-2-1.4-2.9-3-2.9
		c-1.6,0-2.8,1.2-2.8,2.8c0,0.8,0.3,1.5,0.8,2c0.8,0.8,1.8,1.2,2.8,1.7c2.3,1.2,3.5,2.5,3.5,4.7c0,3-2.2,5.2-5.6,5.2
		c-1.4,0-2.5-0.4-3.9-1.1L145.6,41z"/>
	<path d="M157.8,44.6c1.9,0,2.1-0.3,2.1-1.7V31.3c0-1.5,0-1.9-1.9-1.9c-0.1,0-0.2,0-0.2,0v-0.8c1,0,2.2,0,3.6,0c1.2,0,2.5,0,3.8,0
		v0.8c0,0-0.2,0-0.3,0c-1.6,0-1.9,0.4-1.9,2v11.2c0,1.7,0.1,2.1,2.2,2.1v0.8c-1.1,0-2.3-0.1-3.5-0.1c-1.1,0-2.4,0.1-3.9,0.1
		L157.8,44.6L157.8,44.6z"/>
	<path d="M170,44.6c0,0,0.1,0,0.2,0c1.9,0,2.1-0.4,2.1-2.3V29.8h-2.4c-1.9,0-2.6,0.3-3,2.3l-0.7,0c0.2-1.2,0.3-2.5,0.4-4h0.6
		c0.1,0.6,0.6,0.6,1.5,0.6h10.5c0.7,0,1.2,0,1.5-0.7l0.5,0.2c-0.2,1.5-0.3,2.8-0.3,3.8l-0.7,0.2c0-1.9-0.5-2.4-2.1-2.4h-2.6v12.5
		c0,1.9,0.1,2.3,2.3,2.3v0.8c-1.9,0-2.6-0.1-3.8-0.1c-1.1,0-2.6,0.1-3.9,0.1L170,44.6L170,44.6z"/>
	<path d="M186.2,44.6h0.2c1.8,0,2.1-0.4,2.1-2.3v-4.6l-4.1-6.5c-0.7-1.1-1-1.8-2.2-1.8v-0.8c0.8,0,1.6,0,3.7,0c1.1,0,2.2,0,3.1,0
		v0.8h-0.4c-0.8,0-1.1,0.2-1.1,0.5c0,0.3,0.2,0.5,0.4,0.9l2.9,5l2.8-4.4c0.4-0.6,0.7-1,0.7-1.4c0-0.4-0.6-0.6-1.8-0.7v-0.8
		c1.2,0,2.3,0,3.2,0c0.9,0,1.1,0,1.9,0v0.8c-1.3,0.1-1.6,0.8-2.6,2.2l-3.4,5.2v5.4c0,1.9,0.2,2.3,2.3,2.3v0.8
		c-1.3,0-2.5-0.1-3.8-0.1c-1.3,0-2.6,0.1-3.9,0.1L186.2,44.6L186.2,44.6z"/>
</g>
</svg>
